<svg width="3233" height="1024" viewBox="0 0 3233 1024" fill="none" xmlns="http://www.w3.org/2000/svg">
<path d="M789.266 371.204C789.266 483.592 630.757 763.335 559.775 882.971C544.542 908.645 508.074 908.416 493.181 882.543C424.178 762.669 270.719 483.458 270.719 371.204C270.719 226.393 386.8 109 529.993 109C673.186 109 789.266 226.393 789.266 371.204Z" fill="#CCA940"/>
<path fill-rule="evenodd" clip-rule="evenodd" d="M591.478 116.417L289.211 273.767C327.454 177.204 420.847 109 529.993 109C551.177 109 571.769 111.569 591.478 116.417Z" fill="#FCE8AB"/>
<path fill-rule="evenodd" clip-rule="evenodd" d="M786.029 329.65C769.526 224.837 691.607 140.729 590.748 116.239L289.492 273.062C277.385 303.377 270.719 336.503 270.719 371.204C270.719 401.654 282.011 444.388 299.845 492.894L786.029 329.65Z" fill="#F3D67F"/>
<path fill-rule="evenodd" clip-rule="evenodd" d="M657.498 709.596C723.351 585.746 789.266 443.678 789.266 371.204C789.266 356.941 788.14 342.944 785.973 329.299L299.724 492.565C327.792 568.99 372.146 659.797 414.185 739.471L657.498 709.596Z" fill="#E3C25F"/>
<path fill-rule="evenodd" clip-rule="evenodd" d="M765.083 477.06C761.291 487.683 757.13 498.635 752.655 509.842L671.761 508.224V512.303C671.761 541.355 647.086 564.29 618.112 562.17L376.283 544.475C375.238 544.399 374.429 543.528 374.429 542.48V531.836C374.429 530.731 375.324 529.835 376.429 529.835H576.485C577.037 529.835 577.485 529.388 577.485 528.835V516.331C577.485 515.779 577.037 515.331 576.485 515.331H375.429C374.877 515.331 374.429 514.884 374.429 514.331V501.827C374.429 501.275 374.877 500.827 375.429 500.827H576.485C577.037 500.827 577.485 500.38 577.485 499.827V487.323C577.485 486.771 577.037 486.323 576.485 486.323H375.429C374.877 486.323 374.429 485.876 374.429 485.323V472.819C374.429 472.267 374.877 471.819 375.429 471.819H576.485C577.037 471.819 577.485 471.372 577.485 470.819V458.315C577.485 457.763 577.037 457.315 576.485 457.315H376.429C375.324 457.315 374.429 456.42 374.429 455.315L374.429 444.67C374.429 443.623 375.238 442.752 376.283 442.676L618.112 424.981C647.086 422.861 671.761 445.796 671.761 474.848V478.926L765.083 477.06Z" fill="white"/>
<path fill-rule="evenodd" clip-rule="evenodd" d="M276.711 314.903L429.835 312.017C437.928 343.922 477.669 372.422 542.443 372.422C615.39 372.422 685.126 336.274 685.126 299.825C685.126 263.376 615.39 227.229 542.443 227.229C477.669 227.229 437.928 255.729 429.835 287.634L285.09 284.907C281.731 294.656 278.925 304.667 276.711 314.903Z" fill="white"/>
<path d="M1150.5 692C1122.17 692 1098 686.667 1078 676C1058 665 1041 650 1027 631L1058 605C1070.33 621.333 1084 633.833 1099 642.5C1114 650.833 1131.67 655 1152 655C1177 655 1196 649 1209 637C1222.33 625 1229 609 1229 589C1229 572.333 1224 559.5 1214 550.5C1204 541.5 1187.5 534.333 1164.5 529L1136 522.5C1104 515.167 1079.5 504.167 1062.5 489.5C1045.83 474.5 1037.5 453.5 1037.5 426.5C1037.5 411.167 1040.33 397.5 1046 385.5C1051.67 373.5 1059.5 363.5 1069.5 355.5C1079.83 347.5 1092 341.5 1106 337.5C1120.33 333.167 1136 331 1153 331C1179.33 331 1201.83 335.833 1220.5 345.5C1239.5 355.167 1255.5 369.333 1268.5 388L1237 411C1227.33 397.667 1215.67 387.167 1202 379.5C1188.33 371.833 1171.33 368 1151 368C1128.67 368 1111 372.833 1098 382.5C1085.33 391.833 1079 406 1079 425C1079 441.667 1084.33 454.333 1095 463C1106 471.333 1122.5 478 1144.5 483L1173 489.5C1207.33 497.167 1232.17 508.833 1247.5 524.5C1262.83 540.167 1270.5 561 1270.5 587C1270.5 603 1267.67 617.5 1262 630.5C1256.67 643.5 1248.83 654.5 1238.5 663.5C1228.17 672.5 1215.5 679.5 1200.5 684.5C1185.83 689.5 1169.17 692 1150.5 692ZM1436.53 692C1419.19 692 1403.36 688.833 1389.03 682.5C1374.69 676.167 1362.36 667.167 1352.03 655.5C1342.03 643.5 1334.19 629.333 1328.53 613C1322.86 596.333 1320.03 577.667 1320.03 557C1320.03 536.667 1322.86 518.167 1328.53 501.5C1334.19 484.833 1342.03 470.667 1352.03 459C1362.36 447 1374.69 437.833 1389.03 431.5C1403.36 425.167 1419.19 422 1436.53 422C1453.86 422 1469.53 425.167 1483.53 431.5C1497.86 437.833 1510.19 447 1520.53 459C1530.86 470.667 1538.86 484.833 1544.53 501.5C1550.19 518.167 1553.03 536.667 1553.03 557C1553.03 577.667 1550.19 596.333 1544.53 613C1538.86 629.333 1530.86 643.5 1520.53 655.5C1510.19 667.167 1497.86 676.167 1483.53 682.5C1469.53 688.833 1453.86 692 1436.53 692ZM1436.53 656.5C1458.19 656.5 1475.86 649.833 1489.53 636.5C1503.19 623.167 1510.03 602.833 1510.03 575.5V538.5C1510.03 511.167 1503.19 490.833 1489.53 477.5C1475.86 464.167 1458.19 457.5 1436.53 457.5C1414.86 457.5 1397.19 464.167 1383.53 477.5C1369.86 490.833 1363.03 511.167 1363.03 538.5V575.5C1363.03 602.833 1369.86 623.167 1383.53 636.5C1397.19 649.833 1414.86 656.5 1436.53 656.5ZM1777.81 644H1775.81C1773.15 650 1769.81 656 1765.81 662C1762.15 667.667 1757.48 672.833 1751.81 677.5C1746.15 681.833 1739.31 685.333 1731.31 688C1723.31 690.667 1713.98 692 1703.31 692C1676.65 692 1655.48 683.5 1639.81 666.5C1624.15 649.167 1616.31 624.833 1616.31 593.5V428H1656.31V586.5C1656.31 632.833 1675.98 656 1715.31 656C1723.31 656 1730.98 655 1738.31 653C1745.98 651 1752.65 648 1758.31 644C1764.31 640 1768.98 635 1772.31 629C1775.98 622.667 1777.81 615.167 1777.81 606.5V428H1817.81V686H1777.81V644ZM1998.99 692C1980.99 692 1964.83 688.833 1950.49 682.5C1936.16 676.167 1923.99 667.167 1913.99 655.5C1904.33 643.833 1896.83 629.667 1891.49 613C1886.49 596.333 1883.99 577.667 1883.99 557C1883.99 536.333 1886.49 517.667 1891.49 501C1896.83 484.333 1904.33 470.167 1913.99 458.5C1923.99 446.833 1936.16 437.833 1950.49 431.5C1964.83 425.167 1980.99 422 1998.99 422C2024.66 422 2045.16 427.667 2060.49 439C2076.16 450 2087.83 464.5 2095.49 482.5L2061.99 499.5C2057.33 486.167 2049.66 475.833 2038.99 468.5C2028.33 461.167 2014.99 457.5 1998.99 457.5C1986.99 457.5 1976.49 459.5 1967.49 463.5C1958.49 467.167 1950.99 472.5 1944.99 479.5C1938.99 486.167 1934.49 494.333 1931.49 504C1928.49 513.333 1926.99 523.667 1926.99 535V579C1926.99 601.667 1932.99 620.333 1944.99 635C1957.33 649.333 1975.33 656.5 1998.99 656.5C2031.33 656.5 2054.66 641.5 2068.99 611.5L2097.99 631C2089.66 649.667 2077.16 664.5 2060.49 675.5C2044.16 686.5 2023.66 692 1998.99 692ZM2154.46 316H2194.46V470H2196.46C2202.79 455.333 2211.62 443.667 2222.96 435C2234.62 426.333 2250.12 422 2269.46 422C2296.12 422 2317.12 430.667 2332.46 448C2348.12 465 2355.96 489.167 2355.96 520.5V686H2315.96V527.5C2315.96 481.167 2296.46 458 2257.46 458C2249.46 458 2241.62 459 2233.96 461C2226.62 463 2219.96 466 2213.96 470C2207.96 474 2203.12 479.167 2199.46 485.5C2196.12 491.5 2194.46 498.667 2194.46 507V686H2154.46V316ZM2535.64 692C2517.97 692 2501.97 688.833 2487.64 682.5C2473.64 676.167 2461.47 667.167 2451.14 655.5C2441.14 643.5 2433.3 629.333 2427.64 613C2422.3 596.333 2419.64 577.667 2419.64 557C2419.64 536.667 2422.3 518.167 2427.64 501.5C2433.3 484.833 2441.14 470.667 2451.14 459C2461.47 447 2473.64 437.833 2487.64 431.5C2501.97 425.167 2517.97 422 2535.64 422C2552.97 422 2568.47 425.167 2582.14 431.5C2595.8 437.833 2607.47 446.667 2617.14 458C2626.8 469 2634.14 482.167 2639.14 497.5C2644.47 512.833 2647.14 529.667 2647.14 548V567H2461.64V579C2461.64 590 2463.3 600.333 2466.64 610C2470.3 619.333 2475.3 627.5 2481.64 634.5C2488.3 641.5 2496.3 647 2505.64 651C2515.3 655 2526.14 657 2538.14 657C2554.47 657 2568.64 653.167 2580.64 645.5C2592.97 637.833 2602.47 626.833 2609.14 612.5L2637.64 633C2629.3 650.667 2616.3 665 2598.64 676C2580.97 686.667 2559.97 692 2535.64 692ZM2535.64 455.5C2524.64 455.5 2514.64 457.5 2505.64 461.5C2496.64 465.167 2488.8 470.5 2482.14 477.5C2475.8 484.5 2470.8 492.833 2467.14 502.5C2463.47 511.833 2461.64 522.167 2461.64 533.5V537H2604.14V531.5C2604.14 508.5 2597.8 490.167 2585.14 476.5C2572.8 462.5 2556.3 455.5 2535.64 455.5ZM2727.05 463H2685.05V428H2727.05V376C2727.05 358 2731.72 343.5 2741.05 332.5C2750.38 321.5 2764.55 316 2783.55 316H2822.55V351H2767.05V428H2822.55V463H2767.05V686H2727.05V463Z" fill="#262626"/>
</svg>
